<?xml version="1.0" standalone="no"?>
<!DOCTYPE svg PUBLIC "-//W3C//DTD SVG 20010904//EN"
 "http://www.w3.org/TR/2001/REC-SVG-20010904/DTD/svg10.dtd">
<svg version="1.0" xmlns="http://www.w3.org/2000/svg"
 width="30.000000pt" height="38.000000pt" viewBox="0 0 30.000000 38.000000"
 preserveAspectRatio="xMidYMid meet">
<metadata>
Created by potrace 1.13, written by Peter Selinger 2001-2015
</metadata>
<g transform="translate(0.000000,38.000000) scale(0.100000,-0.100000)"
fill="#000000" stroke="none">
<path d="M81 342 c-40 -21 -71 -73 -71 -117 0 -43 32 -97 68 -115 22 -10 37
-29 49 -59 l17 -45 18 45 c13 29 29 49 50 59 36 18 68 72 68 115 0 69 -66 135
-135 135 -17 0 -46 -8 -64 -18z m135 -46 c26 -26 34 -42 34 -71 0 -52 -53
-105 -105 -105 -52 0 -105 53 -105 105 0 29 8 45 34 71 26 26 42 34 71 34 29
0 45 -8 71 -34z"/>
</g>
</svg>
